<svg width="83" height="89" viewBox="0 0 83 89" fill="none" xmlns="http://www.w3.org/2000/svg">
<g filter="url(#filter0_d_196_32)">
<path d="M20.1833 44.5214L17.5765 42.9985L4 50.9264L20.1833 60.3805V44.5214Z" fill="white"/>
<path d="M53.9691 53.1089L44.4227 58.6833L35.2754 53.339L21.679 61.2548L30.8462 66.6105L20.8486 72.4479L34.3572 80.3402L67.5017 60.9871L53.9691 53.1089Z" fill="white"/>
<path d="M44.4267 0L30.8815 7.88493L30.97 39.1704L20.9791 44.9863L20.9658 44.9789V60.7582L35.2043 52.4694L35.2057 52.4721L53.6445 41.7379V25.97L44.5565 31.2606L44.4267 0Z" fill="white"/>
<path d="M45.2118 0.408691L45.3049 16.2322L54.4276 21.543L54.3404 52.4138L67.9288 60.3242L68.0153 29.4534L78.0189 35.2774L78.0635 19.5337L45.2118 0.408691Z" fill="white"/>
</g>
<defs>
<filter id="filter0_d_196_32" x="0" y="0" width="82.0635" height="88.3403" filterUnits="userSpaceOnUse" color-interpolation-filters="sRGB">
<feFlood flood-opacity="0" result="BackgroundImageFix"/>
<feColorMatrix in="SourceAlpha" type="matrix" values="0 0 0 0 0 0 0 0 0 0 0 0 0 0 0 0 0 0 127 0" result="hardAlpha"/>
<feOffset dy="4"/>
<feGaussianBlur stdDeviation="2"/>
<feComposite in2="hardAlpha" operator="out"/>
<feColorMatrix type="matrix" values="0 0 0 0 0 0 0 0 0 0 0 0 0 0 0 0 0 0 0.25 0"/>
<feBlend mode="normal" in2="BackgroundImageFix" result="effect1_dropShadow_196_32"/>
<feBlend mode="normal" in="SourceGraphic" in2="effect1_dropShadow_196_32" result="shape"/>
</filter>
</defs>
</svg>
