<svg width="17" height="18" viewBox="0 0 17 18" fill="none" xmlns="http://www.w3.org/2000/svg">
<path d="M3.62582 9.97499L3.04176 9.63379L0 11.41L3.62582 13.5282V9.97499Z" fill="white"/>
<path d="M11.1954 11.8989L9.05658 13.1479L7.00718 11.9505L3.96094 13.724L6.01482 14.9239L3.7749 16.2318L6.80146 18L14.2274 13.664L11.1954 11.8989Z" fill="white"/>
<path d="M9.05737 0L6.02261 1.76659L6.04243 8.77599L3.80401 10.079L3.80103 10.0774V13.6127L6.99111 11.7556L6.99141 11.7562L11.1226 9.35123V5.81849L9.08643 7.00384L9.05737 0Z" fill="white"/>
<path d="M9.2334 0.0913086L9.25427 3.63652L11.2982 4.82637L11.2786 11.7429L14.3231 13.5152L14.3425 6.59867L16.5837 7.90351L16.5937 4.37619L9.2334 0.0913086Z" fill="white"/>
</svg>
