<svg width="21" height="21" viewBox="0 0 21 21" fill="none" xmlns="http://www.w3.org/2000/svg">
<g id="Group">
<path id="Vector" d="M5.15287 14.0001H1.75C1.51794 14.0001 0.875001 14 0.875001 14C0.875001 14 0.875 13.3571 0.875 13.1251V7.87506C0.875 7.643 0.875001 7.00005 0.875001 7.00005C0.875001 7.00005 1.51794 7.00006 1.75 7.00006H5.15287L9.78512 3.20956C9.84922 3.15702 10.0625 2.98297 10.0625 2.98297C10.2452 2.83348 10.5 2.625 10.5 2.625C10.5 3.06255 10.5 3.0625 10.5 3.0625C10.5 3.0625 10.5001 3.46531 10.5 3.54819V17.4519C10.5001 17.5348 10.5 17.7906 10.5 17.9375C10.5 17.9375 10.5 17.9375 10.5 18.375C10.362 18.2622 10.2235 18.149 10.1426 18.0828C10.0355 17.9952 9.84922 17.8431 9.78512 17.7906L5.15287 14.0001ZM16.9802 17.6173L15.7412 16.3783C16.5707 15.6403 17.2343 14.7348 17.6883 13.7215C18.1423 12.7083 18.3763 11.6104 18.375 10.5001C18.3761 9.3329 18.1172 8.18013 17.6171 7.12551C17.1171 6.0709 16.3884 5.1409 15.484 4.40307L16.7265 3.16056C17.7927 4.06317 18.6491 5.18749 19.2361 6.45511C19.823 7.72273 20.1264 9.10314 20.125 10.5001C20.125 13.3202 18.9122 15.8568 16.9802 17.6173ZM13.8801 14.5172L12.6359 13.2729C13.0607 12.9463 13.4046 12.5263 13.6412 12.0455C13.8777 11.5647 14.0005 11.0359 14 10.5001C14 9.24882 13.3437 8.15069 12.355 7.53206L13.6141 6.27294C14.2769 6.76048 14.8156 7.39718 15.1867 8.13154C15.5577 8.8659 15.7507 9.67729 15.75 10.5001C15.75 12.1118 15.0237 13.5538 13.8801 14.5172Z" fill="white"/>
</g>
</svg>
