<?xml version="1.0" standalone="no"?><!DOCTYPE svg PUBLIC "-//W3C//DTD SVG 1.1//EN" "http://www.w3.org/Graphics/SVG/1.1/DTD/svg11.dtd"><svg t="1701386142971" class="icon" viewBox="0 0 1024 1024" version="1.1" xmlns="http://www.w3.org/2000/svg" p-id="4296" xmlns:xlink="http://www.w3.org/1999/xlink" width="200" height="200"><path d="M245.205369 330.102863c0 22.988003 18.730966 41.718969 41.718969 41.718969 23.109633 0 41.718969-18.730966 41.718969-41.718969s-18.730966-41.718969-41.718969-41.718969S245.205369 306.99323 245.205369 330.102863zM570.199786 545.873857c0 18.001188 14.595558 32.718375 32.718375 32.718375 18.001188 0 32.718375-14.595558 32.718375-32.718375 0-18.001188-14.595558-32.718375-32.718375-32.718375-18.001188 0.12163-32.718375 14.717187-32.718375 32.718375zM458.057251 330.102863c0 22.988003 18.730966 41.718969 41.718969 41.718969 23.109633 0 41.718969-18.730966 41.718969-41.718969s-18.730966-41.718969-41.718969-41.718969-41.718969 18.609336-41.718969 41.718969z" p-id="4297" fill="#ffffff"></path><path d="M846.907234 16.906521H177.092766c-88.668013 0-160.551134 72.126381-160.551134 161.037653v668.96306c0 88.911272 71.883122 161.037653 160.551134 161.037653h669.814468c88.668013 0 160.551134-72.126381 160.551134-161.037653v-668.96306c0-88.911272-71.883122-161.037653-160.551134-161.037653z m-458.54377 663.976244c-37.461931 0-67.626084-7.662668-105.209645-15.082076l-104.966386 52.665637 30.042523-90.370828c-75.167122-52.544008-120.170091-120.291721-120.170091-202.878251 0-142.914835 135.252168-255.543889 300.425228-255.543889 147.658392 0 277.072336 89.884309 303.101081 211.027438-9.608742-1.094667-19.217484-1.824445-28.947856-1.824445-142.671576 0-255.422259 106.547571-255.422259 237.78596 0 21.893337 3.40563 42.935265 9.243853 63.004158-9.243853 0.729778-18.609336 1.216296-28.096448 1.216296z m443.218434 105.331275l22.623114 75.045492-82.4649-45.124599c-30.042523 7.541038-60.206675 15.082076-90.127569 15.082076-142.914835 0-255.543889-97.668607-255.543889-217.960328 0-120.170091 112.629053-217.960328 255.543889-217.960328 135.008908 0 255.179 97.911866 255.179 217.960328 0 67.626084-44.88134 127.71113-105.209645 172.957359z" p-id="4298" fill="#ffffff"></path><path d="M733.913291 545.873857c0 18.001188 14.595558 32.718375 32.718375 32.718375 18.001188 0 32.718375-14.595558 32.718376-32.718375 0-18.001188-14.595558-32.718375-32.718376-32.718375-18.122817 0.12163-32.718375 14.717187-32.718375 32.718375z" p-id="4299" fill="#ffffff"></path></svg>